<svg width="302" height="90" viewBox="0 0 302 90" fill="none" xmlns="http://www.w3.org/2000/svg">
<path d="M22.192 38.016C23.536 38.016 24.7307 38.3147 25.776 38.912C26.8213 39.488 27.632 40.352 28.208 41.504C28.8053 42.6347 29.104 44 29.104 45.6V56H24.624V46.208C24.624 44.8 24.272 43.7227 23.568 42.976C22.864 42.208 21.904 41.824 20.688 41.824C19.4507 41.824 18.4693 42.208 17.744 42.976C17.04 43.7227 16.688 44.8 16.688 46.208V56H12.208V32.32H16.688V40.48C17.264 39.712 18.032 39.1147 18.992 38.688C19.952 38.24 21.0187 38.016 22.192 38.016ZM39.6363 56.288C37.9296 56.288 36.3936 55.9147 35.0282 55.168C33.6629 54.4 32.5856 53.3227 31.7962 51.936C31.0282 50.5493 30.6442 48.9493 30.6442 47.136C30.6442 45.3227 31.0389 43.7227 31.8282 42.336C32.6389 40.9493 33.7376 39.8827 35.1242 39.136C36.5109 38.368 38.0576 37.984 39.7642 37.984C41.4709 37.984 43.0176 38.368 44.4043 39.136C45.7909 39.8827 46.8789 40.9493 47.6683 42.336C48.4789 43.7227 48.8843 45.3227 48.8843 47.136C48.8843 48.9493 48.4683 50.5493 47.6362 51.936C46.8256 53.3227 45.7163 54.4 44.3083 55.168C42.9216 55.9147 41.3643 56.288 39.6363 56.288ZM39.6363 52.384C40.4469 52.384 41.2043 52.192 41.9082 51.808C42.6336 51.4027 43.2096 50.8053 43.6363 50.016C44.0629 49.2267 44.2762 48.2667 44.2762 47.136C44.2762 45.4507 43.8282 44.16 42.9323 43.264C42.0576 42.3467 40.9802 41.888 39.7002 41.888C38.4202 41.888 37.3429 42.3467 36.4682 43.264C35.6149 44.16 35.1883 45.4507 35.1883 47.136C35.1883 48.8213 35.6042 50.1227 36.4362 51.04C37.2896 51.936 38.3563 52.384 39.6363 52.384ZM67.3065 38.272V56H62.7945V53.76C62.2185 54.528 61.4612 55.136 60.5225 55.584C59.6052 56.0107 58.6025 56.224 57.5145 56.224C56.1278 56.224 54.9012 55.936 53.8345 55.36C52.7678 54.7627 51.9252 53.8987 51.3065 52.768C50.7092 51.616 50.4105 50.2507 50.4105 48.672V38.272H54.8905V48.032C54.8905 49.44 55.2425 50.528 55.9465 51.296C56.6505 52.0427 57.6105 52.416 58.8265 52.416C60.0638 52.416 61.0345 52.0427 61.7385 51.296C62.4425 50.528 62.7945 49.44 62.7945 48.032V38.272H67.3065ZM76.9108 56.288C75.4601 56.288 74.1588 56.032 73.0068 55.52C71.8548 54.9867 70.9374 54.272 70.2548 53.376C69.5934 52.48 69.2308 51.488 69.1668 50.4H73.6788C73.7641 51.0827 74.0948 51.648 74.6708 52.096C75.2681 52.544 76.0041 52.768 76.8788 52.768C77.7321 52.768 78.3934 52.5973 78.8628 52.256C79.3534 51.9147 79.5988 51.4773 79.5988 50.944C79.5988 50.368 79.3001 49.9413 78.7028 49.664C78.1268 49.3653 77.1988 49.0453 75.9188 48.704C74.5961 48.384 73.5081 48.0533 72.6548 47.712C71.8228 47.3707 71.0974 46.848 70.4788 46.144C69.8814 45.44 69.5828 44.4907 69.5828 43.296C69.5828 42.3147 69.8601 41.4187 70.4148 40.608C70.9908 39.7973 71.8014 39.1573 72.8468 38.688C73.9134 38.2187 75.1614 37.984 76.5908 37.984C78.7028 37.984 80.3881 38.5173 81.6468 39.584C82.9054 40.6293 83.5988 42.048 83.7268 43.84H79.4388C79.3748 43.136 79.0761 42.5813 78.5428 42.176C78.0308 41.7493 77.3374 41.536 76.4628 41.536C75.6521 41.536 75.0228 41.6853 74.5748 41.984C74.1481 42.2827 73.9348 42.6987 73.9348 43.232C73.9348 43.8293 74.2334 44.288 74.8308 44.608C75.4281 44.9067 76.3561 45.216 77.6148 45.536C78.8948 45.856 79.9508 46.1867 80.7828 46.528C81.6148 46.8693 82.3294 47.4027 82.9268 48.128C83.5454 48.832 83.8654 49.7707 83.8868 50.944C83.8868 51.968 83.5988 52.8853 83.0228 53.696C82.4681 54.5067 81.6574 55.1467 80.5908 55.616C79.5454 56.064 78.3188 56.288 76.9108 56.288ZM102.444 46.752C102.444 47.392 102.402 47.968 102.316 48.48H89.3562C89.4629 49.76 89.9109 50.7627 90.7002 51.488C91.4896 52.2133 92.4602 52.576 93.6122 52.576C95.2762 52.576 96.4602 51.8613 97.1642 50.432H101.996C101.484 52.1387 100.503 53.5467 99.0522 54.656C97.6016 55.744 95.8202 56.288 93.7082 56.288C92.0016 56.288 90.4656 55.9147 89.1002 55.168C87.7562 54.4 86.7002 53.3227 85.9322 51.936C85.1856 50.5493 84.8122 48.9493 84.8122 47.136C84.8122 45.3013 85.1856 43.6907 85.9322 42.304C86.6789 40.9173 87.7242 39.8507 89.0682 39.104C90.4122 38.3573 91.9589 37.984 93.7082 37.984C95.3936 37.984 96.8976 38.3467 98.2202 39.072C99.5642 39.7973 100.599 40.832 101.324 42.176C102.071 43.4987 102.444 45.024 102.444 46.752ZM97.8042 45.472C97.7829 44.32 97.3669 43.4027 96.5562 42.72C95.7456 42.016 94.7536 41.664 93.5802 41.664C92.4709 41.664 91.5322 42.0053 90.7642 42.688C90.0176 43.3493 89.5589 44.2773 89.3882 45.472H97.8042ZM114.61 56L108.594 48.448V56H104.114V32.32H108.594V45.792L114.546 38.272H120.37L112.562 47.168L120.434 56H114.61ZM137.682 46.752C137.682 47.392 137.639 47.968 137.554 48.48H124.594C124.7 49.76 125.148 50.7627 125.938 51.488C126.727 52.2133 127.698 52.576 128.85 52.576C130.514 52.576 131.698 51.8613 132.402 50.432H137.234C136.722 52.1387 135.74 53.5467 134.29 54.656C132.839 55.744 131.058 56.288 128.946 56.288C127.239 56.288 125.703 55.9147 124.338 55.168C122.994 54.4 121.938 53.3227 121.17 51.936C120.423 50.5493 120.05 48.9493 120.05 47.136C120.05 45.3013 120.423 43.6907 121.17 42.304C121.916 40.9173 122.962 39.8507 124.306 39.104C125.65 38.3573 127.196 37.984 128.946 37.984C130.631 37.984 132.135 38.3467 133.458 39.072C134.802 39.7973 135.836 40.832 136.562 42.176C137.308 43.4987 137.682 45.024 137.682 46.752ZM133.042 45.472C133.02 44.32 132.604 43.4027 131.794 42.72C130.983 42.016 129.991 41.664 128.818 41.664C127.708 41.664 126.77 42.0053 126.002 42.688C125.255 43.3493 124.796 44.2773 124.626 45.472H133.042ZM155.832 46.752C155.832 47.392 155.789 47.968 155.704 48.48H142.744C142.85 49.76 143.298 50.7627 144.088 51.488C144.877 52.2133 145.848 52.576 147 52.576C148.664 52.576 149.848 51.8613 150.552 50.432H155.384C154.872 52.1387 153.89 53.5467 152.44 54.656C150.989 55.744 149.208 56.288 147.096 56.288C145.389 56.288 143.853 55.9147 142.488 55.168C141.144 54.4 140.088 53.3227 139.32 51.936C138.573 50.5493 138.2 48.9493 138.2 47.136C138.2 45.3013 138.573 43.6907 139.32 42.304C140.066 40.9173 141.112 39.8507 142.456 39.104C143.8 38.3573 145.346 37.984 147.096 37.984C148.781 37.984 150.285 38.3467 151.608 39.072C152.952 39.7973 153.986 40.832 154.712 42.176C155.458 43.4987 155.832 45.024 155.832 46.752ZM151.192 45.472C151.17 44.32 150.754 43.4027 149.944 42.72C149.133 42.016 148.141 41.664 146.968 41.664C145.858 41.664 144.92 42.0053 144.152 42.688C143.405 43.3493 142.946 44.2773 142.776 45.472H151.192ZM161.982 40.832C162.558 40.0213 163.347 39.3493 164.35 38.816C165.374 38.2613 166.536 37.984 167.838 37.984C169.352 37.984 170.718 38.3573 171.934 39.104C173.171 39.8507 174.142 40.9173 174.846 42.304C175.571 43.6693 175.934 45.2587 175.934 47.072C175.934 48.8853 175.571 50.496 174.846 51.904C174.142 53.2907 173.171 54.368 171.934 55.136C170.718 55.904 169.352 56.288 167.838 56.288C166.536 56.288 165.384 56.0213 164.382 55.488C163.4 54.9547 162.6 54.2827 161.982 53.472V64.448H157.502V38.272H161.982V40.832ZM171.358 47.072C171.358 46.0053 171.134 45.088 170.686 44.32C170.259 43.5307 169.683 42.9333 168.958 42.528C168.254 42.1227 167.486 41.92 166.654 41.92C165.843 41.92 165.075 42.1333 164.35 42.56C163.646 42.9653 163.07 43.5627 162.622 44.352C162.195 45.1413 161.982 46.0693 161.982 47.136C161.982 48.2027 162.195 49.1307 162.622 49.92C163.07 50.7093 163.646 51.3173 164.35 51.744C165.075 52.1493 165.843 52.352 166.654 52.352C167.486 52.352 168.254 52.1387 168.958 51.712C169.683 51.2853 170.259 50.6773 170.686 49.888C171.134 49.0987 171.358 48.16 171.358 47.072ZM179.861 36.16C179.072 36.16 178.411 35.9147 177.877 35.424C177.365 34.912 177.109 34.2827 177.109 33.536C177.109 32.7893 177.365 32.1707 177.877 31.68C178.411 31.168 179.072 30.912 179.861 30.912C180.651 30.912 181.301 31.168 181.813 31.68C182.347 32.1707 182.613 32.7893 182.613 33.536C182.613 34.2827 182.347 34.912 181.813 35.424C181.301 35.9147 180.651 36.16 179.861 36.16ZM182.069 38.272V56H177.589V38.272H182.069ZM194.72 38.016C196.832 38.016 198.538 38.688 199.84 40.032C201.141 41.3547 201.792 43.2107 201.792 45.6V56H197.312V46.208C197.312 44.8 196.96 43.7227 196.256 42.976C195.552 42.208 194.592 41.824 193.376 41.824C192.138 41.824 191.157 42.208 190.432 42.976C189.728 43.7227 189.376 44.8 189.376 46.208V56H184.896V38.272H189.376V40.48C189.973 39.712 190.73 39.1147 191.648 38.688C192.586 38.24 193.61 38.016 194.72 38.016ZM205.348 33.664H210.052L206.596 41.728H203.524L205.348 33.664Z" fill="black"/>
<path d="M10 59.2H153.98V62.72H10V59.2ZM165.504 59.2H211.044V62.72H165.504V59.2Z" fill="black"/>
<rect x="222" y="10" width="70" height="70" rx="10" fill="#4351E7"/>
<path d="M256.452 70L256.452 71.5H256.453H256.453H256.454H256.455H256.455H256.457H256.458H256.459H256.461H256.463H256.465H256.467H256.469H256.472H256.474H256.477H256.48H256.483H256.487H256.49H256.494H256.497H256.501H256.506H256.51H256.514H256.519H256.524H256.528H256.534H256.539H256.544H256.55H256.555H256.561H256.567H256.573H256.58H256.586H256.593H256.599H256.606H256.613H256.621H256.628H256.635H256.643H256.651H256.659H256.667H256.675H256.683H256.692H256.701H256.709H256.718H256.727H256.737H256.746H256.756H256.765H256.775H256.785H256.795H256.805H256.815H256.826H256.836H256.847H256.858H256.869H256.88H256.891H256.903H256.914H256.926H256.938H256.95H256.962H256.974H256.986H256.999H257.011H257.024H257.037H257.049H257.062H257.076H257.089H257.102H257.116H257.129H257.143H257.157H257.171H257.185H257.199H257.214H257.228H257.243H257.258H257.272H257.287H257.302H257.317H257.333H257.348H257.364H257.379H257.395H257.411H257.427H257.443H257.459H257.475H257.491H257.508H257.524H257.541H257.558H257.575H257.591H257.609H257.626H257.643H257.66H257.678H257.695H257.713H257.731H257.749H257.767H257.785H257.803H257.821H257.839H257.858H257.876H257.895H257.914H257.932H257.951H257.97H257.989H258.008H258.028H258.047H258.066H258.086H258.105H258.125H258.145H258.165H258.185H258.205H258.225H258.245H258.265H258.285H258.306H258.326H258.347H258.368H258.388H258.409H258.43H258.451H258.472H258.493H258.514H258.535H258.557H258.578H258.599H258.621H258.643H258.664H258.686H258.708H258.73H258.752H258.774H258.796H258.818H258.84H258.862H258.884H258.907H258.929H258.952H258.974H258.997H259.02H259.042H259.065H259.088H259.111H259.134H259.157H259.18H259.203H259.226H259.25H259.273H259.296H259.32H259.343H259.367H259.39H259.414H259.438H259.461H259.485H259.509H259.533H259.557H259.58H259.604H259.628H259.653H259.677H259.701H259.725H259.749H259.774H259.798H259.822H259.847H259.871H259.895H259.92H259.945H259.969H259.994H260.018H260.043H260.068H260.093H260.117H260.142H260.167H260.192H260.217H260.242H260.267H260.292H260.317H260.342H260.367H260.392H260.417H260.442H260.467H260.493H260.518H260.543H260.568H260.593H260.619H260.644H260.669H260.695H260.72H260.746H260.771H260.796H260.822H260.847H260.873H260.898H260.924H260.949H260.975H261H261.026H261.051H261.077H261.103H261.128H261.154H261.179H261.205H261.23H261.256H261.282H261.307H261.333H261.359H261.384H261.41H261.435H261.461H261.487H261.512H261.538H261.564H261.589H261.615H261.64H261.666H261.692H261.717H261.743H261.768H261.794H261.82H261.845H261.871H261.896H261.922H261.947H261.973H261.998H262.024H262.049H262.075H262.1H262.126H262.151H262.176H262.202H262.227H262.252H262.278H262.303H262.328H262.354H262.379H262.404H262.429H262.455H262.48H262.505H262.53H262.555H262.58H262.605H262.63H262.655H262.68H262.705H262.73H262.755H262.779H262.804H262.829H262.854H262.878H262.903H262.928H262.952H262.977H263.001H263.026H263.05H263.075H263.099H263.123H263.148H263.172H263.196H263.22H263.245H263.269H263.293H263.317H263.341H263.365H263.388H263.412H263.436H263.46H263.483H263.507H263.531H263.554H263.578H263.601H263.624H263.648H263.671H263.694H263.717H263.74H263.764H263.786H263.809H263.832H263.855H263.878H263.901H263.923H263.946H263.968H263.991H264.013H264.036H264.058H264.08H264.102H264.124H264.146H264.168H264.19H264.212H264.234H264.255H264.277H264.299H264.32H264.342H264.363H264.384H264.405H264.426H264.447H264.468H264.489H264.51H264.531H264.552H264.572H264.593H264.613H264.633H264.654H264.674H264.694H264.714H264.734H264.754H264.774H264.793H264.813H264.832H264.852H264.871H264.891H264.91H264.929H264.948H264.967H264.986H265.004H265.023H265.041H265.06H265.078H265.097H265.115H265.133H265.151H265.169H265.187H265.204H265.222H265.239H265.257H265.274H265.291H265.308H265.325H265.342H265.359H265.376H265.392H265.409H265.425H265.442H265.458H265.474H265.49H265.506H265.521H265.537H265.552H265.568H265.583H265.598H265.613H265.628H265.643H265.658H265.673H265.687H265.702H265.716H265.73H265.744H265.758H265.772H265.785H265.799H265.812H265.826H265.839H265.852H265.865H265.878H265.891H265.903H265.916H265.928H265.94H265.952H265.964H265.976H265.988H265.999H266.011H266.022H270.927L271.01 71.4999C271.132 71.4994 271.249 71.4996 271.371 71.4998C271.438 71.4999 271.507 71.5 271.578 71.5H272.967C275.875 71.5 277.94 68.9102 277.94 66.0945V64.5868C277.965 64.3179 277.983 64.0283 277.983 63.7219L277.983 63.7161L277.933 50.8526C277.93 50.1508 278.498 49.5805 279.2 49.5805H279.209C281.624 49.5805 283.45 47.4429 283.486 45.019C283.6 43.6234 283.008 42.4438 282.086 41.536C282.086 41.5353 282.085 41.5346 282.084 41.5339L280.467 39.9318C278.855 38.3355 277.948 36.1611 277.948 33.8927V26.2488C277.948 23.8627 276.196 21.6244 273.67 21.6244H270.892C268.37 21.6244 266.62 23.8557 266.614 26.2376L259.924 19.6172L259.909 19.6029L259.894 19.589C259.035 18.7835 257.942 18.5 257.046 18.5C256.254 18.5 255.063 18.6363 254.053 19.742L231.818 41.5317L231.781 41.5678L231.747 41.6063C230.872 42.5906 230.5 43.7368 230.5 44.9463C230.5 47.3552 232.22 49.5805 234.778 49.5805C235.484 49.5805 236.056 50.1526 236.056 50.8585V54.8257C236.047 54.9554 236.047 55.0715 236.047 55.143L236.047 55.1592V66.0945C236.047 68.9102 238.112 71.5 241.02 71.5H242.409C242.523 71.5 242.61 71.4989 242.686 71.4979C242.796 71.4965 242.883 71.4954 242.994 71.4984M242.994 71.4984C242.994 71.4984 242.994 71.4984 242.994 71.4984L243.034 69.9989L242.994 71.4984Z" stroke="#C06969" stroke-width="3"/>
<path d="M269.704 32.8599L267.437 26.9672C267.403 26.8788 267.343 26.8027 267.265 26.7491C267.187 26.6955 267.095 26.6667 267 26.6667C266.905 26.6667 266.813 26.6955 266.735 26.7491C266.657 26.8027 266.596 26.8788 266.562 26.9672L264.296 32.8599C264.272 32.9212 264.236 32.9768 264.19 33.0231C264.143 33.0695 264.088 33.1057 264.027 33.1292L258.134 35.3959C258.045 35.4299 257.969 35.4899 257.916 35.568C257.862 35.6461 257.833 35.7386 257.833 35.8334C257.833 35.9281 257.862 36.0206 257.916 36.0987C257.969 36.1768 258.045 36.2369 258.134 36.2709L264.027 38.5375C264.088 38.5611 264.143 38.5972 264.19 38.6436C264.236 38.69 264.272 38.7456 264.296 38.8068L266.562 44.6995C266.596 44.788 266.657 44.864 266.735 44.9177C266.813 44.9713 266.905 45 267 45C267.095 45 267.187 44.9713 267.265 44.9177C267.343 44.864 267.403 44.788 267.437 44.6995L269.704 38.8068C269.728 38.7456 269.764 38.69 269.81 38.6436C269.857 38.5972 269.912 38.5611 269.973 38.5375L275.866 36.2709C275.955 36.2369 276.031 36.1768 276.084 36.0987C276.138 36.0206 276.167 35.9281 276.167 35.8334C276.167 35.7386 276.138 35.6461 276.084 35.568C276.031 35.4899 275.955 35.4299 275.866 35.3959L269.973 33.1292C269.912 33.1057 269.857 33.0695 269.81 33.0231C269.764 32.9768 269.728 32.9212 269.704 32.8599Z" stroke="white" stroke-width="2" stroke-linecap="round" stroke-linejoin="round"/>
<path d="M261.217 21.2133L261.712 22.5009C261.763 22.633 261.867 22.7373 261.999 22.7881L263.287 23.2833C263.714 23.4477 263.714 24.0523 263.287 24.2167L261.999 24.7119C261.867 24.7627 261.763 24.867 261.712 24.9991L261.217 26.2867C261.052 26.714 260.448 26.714 260.283 26.2867L259.788 24.9991C259.737 24.867 259.633 24.7627 259.501 24.7119L258.213 24.2167C257.786 24.0523 257.786 23.4477 258.213 23.2833L259.501 22.7881C259.633 22.7373 259.737 22.633 259.788 22.5009L260.283 21.2133C260.448 20.786 261.052 20.786 261.217 21.2133Z" stroke="white" stroke-width="2" stroke-linecap="round" stroke-linejoin="round"/>
<path d="M279.467 21.8798L280.309 24.0702C280.36 24.2023 280.464 24.3066 280.596 24.3574L282.787 25.2C283.214 25.3644 283.214 25.969 282.787 26.1333L280.596 26.976C280.464 27.0267 280.36 27.1311 280.309 27.2631L279.467 29.4536C279.302 29.8809 278.698 29.8809 278.533 29.4536L277.691 27.2631C277.64 27.1311 277.536 27.0267 277.404 26.976L275.213 26.1333C274.786 25.969 274.786 25.3644 275.213 25.2L277.404 24.3574C277.536 24.3066 277.64 24.2023 277.691 24.0702L278.533 21.8798C278.698 21.4525 279.302 21.4525 279.467 21.8798Z" stroke="white" stroke-width="2" stroke-linecap="round" stroke-linejoin="round"/>
</svg>
